<mxfile host="app.diagrams.net" modified="2022-05-06T08:32:02.143Z" agent="5.0 (Windows NT 10.0; Win64; x64) AppleWebKit/537.36 (KHTML, like Gecko) Chrome/100.0.4896.127 Safari/537.36 Edg/100.0.1185.44" etag="j7lO8cRxM614tWw2N7cU" version="17.4.5" type="github">
  <diagram id="EuHPUjdlsjWBecQjf30i" name="Page-1">
    <mxGraphModel dx="868" dy="1651" grid="1" gridSize="10" guides="1" tooltips="1" connect="1" arrows="1" fold="1" page="1" pageScale="1" pageWidth="827" pageHeight="1169" math="0" shadow="0">
      <root>
        <mxCell id="0" />
        <mxCell id="1" parent="0" />
        <mxCell id="2chVR-bE_qPLSgnRJcAf-1" value="User Interaction" style="ellipse;shape=cloud;whiteSpace=wrap;html=1;" vertex="1" parent="1">
          <mxGeometry x="290" y="-70" width="200" height="80" as="geometry" />
        </mxCell>
        <mxCell id="2chVR-bE_qPLSgnRJcAf-4" value="NGINX" style="rounded=0;whiteSpace=wrap;html=1;" vertex="1" parent="1">
          <mxGeometry x="335" y="40" width="115" height="60" as="geometry" />
        </mxCell>
        <mxCell id="2chVR-bE_qPLSgnRJcAf-5" value="" style="endArrow=classic;html=1;rounded=0;exitX=0.51;exitY=0.95;exitDx=0;exitDy=0;exitPerimeter=0;" edge="1" parent="1" source="2chVR-bE_qPLSgnRJcAf-1" target="2chVR-bE_qPLSgnRJcAf-4">
          <mxGeometry width="50" height="50" relative="1" as="geometry">
            <mxPoint x="390" y="200" as="sourcePoint" />
            <mxPoint x="440" y="150" as="targetPoint" />
          </mxGeometry>
        </mxCell>
        <mxCell id="2chVR-bE_qPLSgnRJcAf-6" value="Service 1&lt;br&gt;Front End" style="rounded=0;whiteSpace=wrap;html=1;" vertex="1" parent="1">
          <mxGeometry x="335" y="130" width="115" height="60" as="geometry" />
        </mxCell>
        <mxCell id="2chVR-bE_qPLSgnRJcAf-7" value="" style="endArrow=classic;html=1;rounded=0;exitX=0.25;exitY=1;exitDx=0;exitDy=0;entryX=0.25;entryY=0;entryDx=0;entryDy=0;" edge="1" parent="1" source="2chVR-bE_qPLSgnRJcAf-4" target="2chVR-bE_qPLSgnRJcAf-6">
          <mxGeometry width="50" height="50" relative="1" as="geometry">
            <mxPoint x="390" y="200" as="sourcePoint" />
            <mxPoint x="370" y="140" as="targetPoint" />
          </mxGeometry>
        </mxCell>
        <mxCell id="2chVR-bE_qPLSgnRJcAf-8" value="" style="endArrow=classic;html=1;rounded=0;entryX=0.75;entryY=1;entryDx=0;entryDy=0;exitX=0.75;exitY=0;exitDx=0;exitDy=0;" edge="1" parent="1" source="2chVR-bE_qPLSgnRJcAf-6" target="2chVR-bE_qPLSgnRJcAf-4">
          <mxGeometry width="50" height="50" relative="1" as="geometry">
            <mxPoint x="390" y="200" as="sourcePoint" />
            <mxPoint x="440" y="150" as="targetPoint" />
          </mxGeometry>
        </mxCell>
        <mxCell id="2chVR-bE_qPLSgnRJcAf-10" value="Service 2" style="rounded=0;whiteSpace=wrap;html=1;" vertex="1" parent="1">
          <mxGeometry x="190" y="220" width="120" height="60" as="geometry" />
        </mxCell>
        <mxCell id="2chVR-bE_qPLSgnRJcAf-11" value="Service 3" style="rounded=0;whiteSpace=wrap;html=1;" vertex="1" parent="1">
          <mxGeometry x="335" y="220" width="120" height="60" as="geometry" />
        </mxCell>
        <mxCell id="2chVR-bE_qPLSgnRJcAf-12" value="Service 4" style="rounded=0;whiteSpace=wrap;html=1;" vertex="1" parent="1">
          <mxGeometry x="470" y="220" width="120" height="60" as="geometry" />
        </mxCell>
        <mxCell id="2chVR-bE_qPLSgnRJcAf-13" value="" style="endArrow=classic;html=1;rounded=0;exitX=0;exitY=1;exitDx=0;exitDy=0;entryX=0.408;entryY=0.017;entryDx=0;entryDy=0;entryPerimeter=0;" edge="1" parent="1" source="2chVR-bE_qPLSgnRJcAf-6" target="2chVR-bE_qPLSgnRJcAf-10">
          <mxGeometry relative="1" as="geometry">
            <mxPoint x="360" y="180" as="sourcePoint" />
            <mxPoint x="460" y="180" as="targetPoint" />
          </mxGeometry>
        </mxCell>
        <mxCell id="2chVR-bE_qPLSgnRJcAf-14" value="GET" style="edgeLabel;resizable=0;html=1;align=center;verticalAlign=middle;" connectable="0" vertex="1" parent="2chVR-bE_qPLSgnRJcAf-13">
          <mxGeometry relative="1" as="geometry" />
        </mxCell>
        <mxCell id="2chVR-bE_qPLSgnRJcAf-19" value="" style="endArrow=classic;html=1;rounded=0;exitX=0.5;exitY=1;exitDx=0;exitDy=0;" edge="1" parent="1" source="2chVR-bE_qPLSgnRJcAf-6">
          <mxGeometry relative="1" as="geometry">
            <mxPoint x="330" y="100" as="sourcePoint" />
            <mxPoint x="390" y="220" as="targetPoint" />
          </mxGeometry>
        </mxCell>
        <mxCell id="2chVR-bE_qPLSgnRJcAf-20" value="GET" style="edgeLabel;resizable=0;html=1;align=center;verticalAlign=middle;" connectable="0" vertex="1" parent="2chVR-bE_qPLSgnRJcAf-19">
          <mxGeometry relative="1" as="geometry" />
        </mxCell>
        <mxCell id="2chVR-bE_qPLSgnRJcAf-22" value="" style="endArrow=classic;html=1;rounded=0;exitX=1;exitY=1;exitDx=0;exitDy=0;entryX=0.5;entryY=0;entryDx=0;entryDy=0;" edge="1" parent="1" source="2chVR-bE_qPLSgnRJcAf-6" target="2chVR-bE_qPLSgnRJcAf-12">
          <mxGeometry relative="1" as="geometry">
            <mxPoint x="330" y="100" as="sourcePoint" />
            <mxPoint x="490" y="100" as="targetPoint" />
            <Array as="points">
              <mxPoint x="500" y="210" />
            </Array>
          </mxGeometry>
        </mxCell>
        <mxCell id="2chVR-bE_qPLSgnRJcAf-23" value="POST" style="edgeLabel;resizable=0;html=1;align=center;verticalAlign=middle;" connectable="0" vertex="1" parent="2chVR-bE_qPLSgnRJcAf-22">
          <mxGeometry relative="1" as="geometry" />
        </mxCell>
      </root>
    </mxGraphModel>
  </diagram>
</mxfile>
